<svg width="496" height="92" viewBox="0 0 496 92" fill="none" xmlns="http://www.w3.org/2000/svg">
<g clip-path="url(#clip0_801_74)">
<path d="M52.2376 14.6826H0.260742V80.7539H52.2376V14.6826Z" fill="#F0E938" stroke="#F0E938" stroke-width="2"/>
<path d="M99.0045 33.961C98.3585 33.502 97.755 33.111 97.194 32.788C96.65 32.448 96.123 32.1675 95.613 31.9465C95.103 31.7255 94.6015 31.564 94.1085 31.462C93.6155 31.343 93.114 31.275 92.604 31.258C91.975 31.241 91.3205 31.2835 90.6405 31.3855C89.9775 31.4875 89.374 31.6915 88.83 31.9975C88.286 32.3035 87.8355 32.7285 87.4785 33.2725C87.1215 33.7995 86.943 34.4795 86.943 35.3125C86.943 36.0265 87.0705 36.6385 87.3255 37.1485C87.5805 37.6415 87.929 38.092 88.371 38.5C88.813 38.908 89.323 39.2905 89.901 39.6475C90.479 39.9875 91.0995 40.3615 91.7625 40.7695C92.4085 41.1775 93.08 41.594 93.777 42.019C94.491 42.427 95.1795 42.886 95.8425 43.396C96.5225 43.889 97.1515 44.433 97.7295 45.028C98.3245 45.623 98.826 46.2945 99.234 47.0425C99.659 47.7735 99.9735 48.598 100.178 49.516C100.382 50.417 100.424 51.437 100.305 52.576C100.169 53.97 99.829 55.245 99.285 56.401C98.758 57.557 98.0865 58.5855 97.2705 59.4865C96.4545 60.3875 95.5195 61.1695 94.4655 61.8325C93.4285 62.4785 92.3235 63.014 91.1505 63.439C89.9945 63.847 88.8045 64.136 87.5805 64.306C86.3735 64.476 85.192 64.5185 84.036 64.4335C81.877 64.2975 79.871 63.932 78.018 63.337C76.182 62.725 74.601 61.9175 73.275 60.9145L77.814 55.126C78.273 55.5 78.749 55.857 79.242 56.197C79.735 56.52 80.2705 56.826 80.8485 57.115C81.4435 57.387 82.081 57.625 82.761 57.829C83.458 58.016 84.223 58.152 85.056 58.237C85.804 58.322 86.586 58.2795 87.402 58.1095C88.218 57.9225 88.966 57.6165 89.646 57.1915C90.343 56.7495 90.9125 56.1885 91.3545 55.5085C91.8135 54.8115 92.043 53.987 92.043 53.035C92.043 52.1 91.8645 51.284 91.5075 50.587C91.1505 49.873 90.683 49.244 90.105 48.7C89.544 48.156 88.915 47.68 88.218 47.272C87.521 46.847 86.8325 46.4475 86.1525 46.0735C85.0475 45.4785 84.002 44.875 83.016 44.263C82.047 43.634 81.2055 42.937 80.4915 42.172C79.7775 41.407 79.225 40.5315 78.834 39.5455C78.46 38.5595 78.307 37.3865 78.375 36.0265C78.426 34.8705 78.681 33.791 79.14 32.788C79.599 31.785 80.1855 30.8755 80.8995 30.0595C81.6305 29.2265 82.472 28.504 83.424 27.892C84.393 27.263 85.4045 26.7445 86.4585 26.3365C87.5295 25.9285 88.626 25.6395 89.748 25.4695C90.87 25.2995 91.9665 25.2485 93.0375 25.3165C95.0265 25.4525 96.8795 25.8265 98.5965 26.4385C100.331 27.0335 102.031 27.9175 103.697 29.0905L99.0045 33.961ZM112 64H104.018L108.914 36.1285L117.049 35.287L116.207 40.1065L119.165 36.256C119.556 36.12 119.973 36.001 120.415 35.899C120.789 35.814 121.197 35.729 121.639 35.644C122.098 35.559 122.548 35.5165 122.99 35.5165C123.33 35.5165 123.747 35.5505 124.24 35.6185C124.733 35.6865 125.26 35.814 125.821 36.001C126.399 36.171 126.994 36.409 127.606 36.715C128.235 37.021 128.847 37.4205 129.442 37.9135C129.952 37.6415 130.521 37.361 131.15 37.072C131.779 36.783 132.434 36.528 133.114 36.307C133.794 36.069 134.491 35.882 135.205 35.746C135.919 35.593 136.624 35.5165 137.321 35.5165C138.834 35.5165 140.152 35.797 141.274 36.358C142.413 36.919 143.322 37.6585 144.002 38.5765C144.699 39.4775 145.158 40.5145 145.379 41.6875C145.6 42.8435 145.558 44.025 145.252 45.232L141.962 64H133.981L137.372 44.6965C137.491 44.2035 137.508 43.7445 137.423 43.3195C137.355 42.8775 137.211 42.495 136.99 42.172C136.769 41.849 136.488 41.594 136.148 41.407C135.808 41.203 135.443 41.084 135.052 41.05C134.423 40.999 133.726 41.1265 132.961 41.4325C132.196 41.7385 131.388 42.342 130.538 43.243C130.504 43.651 130.462 44.008 130.411 44.314C130.36 44.603 130.3 44.9855 130.232 45.4615L126.968 64H118.987L122.378 44.6965C122.531 44.2205 122.574 43.7785 122.506 43.3705C122.455 42.9455 122.327 42.5715 122.123 42.2485C121.936 41.9255 121.69 41.662 121.384 41.458C121.095 41.237 120.789 41.101 120.466 41.05C119.701 40.914 118.927 41.016 118.145 41.356C117.363 41.696 116.53 42.308 115.646 43.192L112 64ZM167.354 41.4325C167.014 41.3815 166.7 41.339 166.411 41.305C166.122 41.271 165.918 41.2455 165.799 41.2285C164.524 41.2285 163.393 41.492 162.407 42.019C161.438 42.546 160.605 43.2515 159.908 44.1355C159.211 45.0195 158.65 46.0565 158.225 47.2465C157.817 48.4195 157.545 49.669 157.409 50.995C157.307 52.032 157.273 53.018 157.307 53.953C157.358 54.871 157.477 55.687 157.664 56.401C157.851 57.098 158.115 57.6505 158.455 58.0585C158.812 58.4665 159.237 58.6705 159.73 58.6705C160.308 58.6705 160.852 58.577 161.362 58.39C161.889 58.186 162.373 57.931 162.815 57.625C163.274 57.319 163.674 56.9875 164.014 56.6305C164.371 56.2735 164.677 55.9335 164.932 55.6105L167.354 41.4325ZM158.276 64.408C156.967 64.391 155.828 64.187 154.859 63.796C153.89 63.388 153.057 62.844 152.36 62.164C151.68 61.484 151.128 60.6935 150.703 59.7925C150.295 58.8745 149.989 57.897 149.785 56.86C149.598 55.806 149.496 54.7095 149.479 53.5705C149.479 52.4315 149.555 51.301 149.708 50.179C149.861 48.955 150.142 47.7395 150.55 46.5325C150.958 45.3255 151.493 44.178 152.156 43.09C152.836 42.002 153.635 40.999 154.553 40.081C155.488 39.146 156.551 38.347 157.741 37.684C158.948 37.004 160.291 36.477 161.77 36.103C163.266 35.712 164.898 35.5165 166.666 35.5165C167.703 35.5335 168.748 35.61 169.802 35.746C170.72 35.865 171.715 36.052 172.786 36.307C173.857 36.562 174.885 36.9275 175.871 37.4035L172.225 58.6705L171.868 64H163.657L164.371 59.869L160.418 64.255C160.231 64.289 159.985 64.323 159.679 64.357C159.373 64.408 158.905 64.425 158.276 64.408ZM199.265 41.8915C198.959 41.7215 198.678 41.5855 198.423 41.4835C198.168 41.3645 197.913 41.271 197.658 41.203C197.403 41.135 197.123 41.0925 196.817 41.0755C196.528 41.0585 196.188 41.05 195.797 41.05C194.726 41.05 193.672 41.407 192.635 42.121C191.598 42.835 190.731 43.872 190.034 45.232L186.744 64H178.763L183.659 36.1285L191.793 35.287L190.748 41.1775L194.063 35.95C194.216 35.899 194.394 35.848 194.598 35.797C194.819 35.746 195.049 35.7035 195.287 35.6695C195.525 35.6185 195.763 35.5845 196.001 35.5675C196.256 35.5335 196.494 35.5165 196.715 35.5165C197.65 35.5165 198.406 35.593 198.984 35.746C199.579 35.882 200.123 36.086 200.616 36.358L199.265 41.8915ZM211.846 54.106C211.71 54.667 211.634 55.2025 211.617 55.7125C211.6 56.2225 211.625 56.6815 211.693 57.0895C211.778 57.4975 211.897 57.846 212.05 58.135C212.22 58.407 212.416 58.594 212.637 58.696C213.011 58.866 213.368 58.9255 213.708 58.8745C214.048 58.8235 214.354 58.73 214.626 58.594C214.932 58.441 215.221 58.2455 215.493 58.0075L217.176 62.164C216.462 62.861 215.527 63.4305 214.371 63.8725C213.215 64.3145 211.889 64.493 210.393 64.408C208.71 64.306 207.401 63.9745 206.466 63.4135C205.531 62.8355 204.859 62.0705 204.451 61.1185C204.043 60.1665 203.848 59.053 203.865 57.778C203.882 56.486 204.001 55.075 204.222 53.545L206.313 41.662H202.488L203.482 35.95H207.307L208.123 31.3855L216.564 26.6935L214.932 35.95H222.327L220.644 41.662H214.039L211.846 54.106Z" fill="#6D93F7"/>
<path d="M222.143 64L227.804 31.7935L228.008 25.903L237.545 25.1125L235.352 37.6075L247.413 25.75H256.797L241.37 41.05L234.051 43.549L240.299 45.742L250.601 64H240.911L233.133 50.23L230.711 64H222.143ZM270.649 41.4325C270.309 41.3815 269.995 41.339 269.706 41.305C269.417 41.271 269.213 41.2455 269.094 41.2285C267.819 41.2285 266.688 41.492 265.702 42.019C264.733 42.546 263.9 43.2515 263.203 44.1355C262.506 45.0195 261.945 46.0565 261.52 47.2465C261.112 48.4195 260.84 49.669 260.704 50.995C260.602 52.032 260.568 53.018 260.602 53.953C260.653 54.871 260.772 55.687 260.959 56.401C261.146 57.098 261.41 57.6505 261.75 58.0585C262.107 58.4665 262.532 58.6705 263.025 58.6705C263.603 58.6705 264.147 58.577 264.657 58.39C265.184 58.186 265.668 57.931 266.11 57.625C266.569 57.319 266.969 56.9875 267.309 56.6305C267.666 56.2735 267.972 55.9335 268.227 55.6105L270.649 41.4325ZM261.571 64.408C260.262 64.391 259.123 64.187 258.154 63.796C257.185 63.388 256.352 62.844 255.655 62.164C254.975 61.484 254.423 60.6935 253.998 59.7925C253.59 58.8745 253.284 57.897 253.08 56.86C252.893 55.806 252.791 54.7095 252.774 53.5705C252.774 52.4315 252.85 51.301 253.003 50.179C253.156 48.955 253.437 47.7395 253.845 46.5325C254.253 45.3255 254.788 44.178 255.451 43.09C256.131 42.002 256.93 40.999 257.848 40.081C258.783 39.146 259.846 38.347 261.036 37.684C262.243 37.004 263.586 36.477 265.065 36.103C266.561 35.712 268.193 35.5165 269.961 35.5165C270.998 35.5335 272.043 35.61 273.097 35.746C274.015 35.865 275.01 36.052 276.081 36.307C277.152 36.562 278.18 36.9275 279.166 37.4035L275.52 58.6705L275.163 64H266.952L267.666 59.869L263.713 64.255C263.526 64.289 263.28 64.323 262.974 64.357C262.668 64.408 262.2 64.425 261.571 64.408ZM302.56 41.8915C302.254 41.7215 301.973 41.5855 301.718 41.4835C301.463 41.3645 301.208 41.271 300.953 41.203C300.698 41.135 300.418 41.0925 300.112 41.0755C299.823 41.0585 299.483 41.05 299.092 41.05C298.021 41.05 296.967 41.407 295.93 42.121C294.893 42.835 294.026 43.872 293.329 45.232L290.039 64H282.058L286.954 36.1285L295.088 35.287L294.043 41.1775L297.358 35.95C297.511 35.899 297.689 35.848 297.893 35.797C298.114 35.746 298.344 35.7035 298.582 35.6695C298.82 35.6185 299.058 35.5845 299.296 35.5675C299.551 35.5335 299.789 35.5165 300.01 35.5165C300.945 35.5165 301.701 35.593 302.279 35.746C302.874 35.882 303.418 36.086 303.911 36.358L302.56 41.8915ZM315.141 54.106C315.005 54.667 314.929 55.2025 314.912 55.7125C314.895 56.2225 314.92 56.6815 314.988 57.0895C315.073 57.4975 315.192 57.846 315.345 58.135C315.515 58.407 315.711 58.594 315.932 58.696C316.306 58.866 316.663 58.9255 317.003 58.8745C317.343 58.8235 317.649 58.73 317.921 58.594C318.227 58.441 318.516 58.2455 318.788 58.0075L320.471 62.164C319.757 62.861 318.822 63.4305 317.666 63.8725C316.51 64.3145 315.184 64.493 313.688 64.408C312.005 64.306 310.696 63.9745 309.761 63.4135C308.826 62.8355 308.154 62.0705 307.746 61.1185C307.338 60.1665 307.143 59.053 307.16 57.778C307.177 56.486 307.296 55.075 307.517 53.545L309.608 41.662H305.783L306.777 35.95H310.602L311.418 31.3855L319.859 26.6935L318.227 35.95H325.622L323.939 41.662H317.334L315.141 54.106Z" fill="#F0E938"/>
<mask id="mask0_801_74" style="mask-type:luminance" maskUnits="userSpaceOnUse" x="-3" y="-13" width="59" height="45">
<path d="M40.4844 16.2445C40.4844 14.4804 40.1162 12.7337 39.4008 11.1039C38.6854 9.47414 37.6369 7.99331 36.3151 6.74594C34.9932 5.49858 33.424 4.50912 31.6969 3.83405C29.9699 3.15898 28.1188 2.81152 26.2495 2.81152C24.3802 2.81152 22.5291 3.15898 20.8021 3.83405C19.075 4.50912 17.5058 5.49858 16.1839 6.74594C14.8621 7.99331 13.8136 9.47414 13.0982 11.1039C12.3828 12.7337 12.0146 14.4804 12.0146 16.2445H26.2495H40.4844Z" stroke="#1554CF" stroke-width="30"/>
</mask>
<g mask="url(#mask0_801_74)">
<path d="M40.4844 16.2445C40.4844 14.4804 40.1162 12.7337 39.4008 11.1039C38.6854 9.47414 37.6369 7.99331 36.3151 6.74594C34.9932 5.49858 33.424 4.50912 31.6969 3.83405C29.9699 3.15898 28.1188 2.81152 26.2495 2.81152C24.3802 2.81152 22.5291 3.15898 20.8021 3.83405C19.075 4.50912 17.5058 5.49858 16.1839 6.74594C14.8621 7.99331 13.8136 9.47414 13.0982 11.1039C12.3828 12.7337 12.0146 14.4804 12.0146 16.2445H26.2495H40.4844Z" stroke="#F0E938" stroke-width="30"/>
</g>
<path d="M9.61335 24.0542H52.3495V32.9398H17.5986C13.9923 32.9398 11.0688 36.4364 11.0688 40.7496V41.4983C11.0688 45.8115 13.9923 49.3081 17.5986 49.3081H34.0212C36.2023 49.3081 37.9704 51.4229 37.9704 54.0315C37.9704 56.6402 36.2023 58.7549 34.0212 58.7549H9.39792C5.75717 58.7549 2.81962 55.1938 2.86877 50.8396L3.0842 31.7586C3.13243 27.4868 6.04146 24.0542 9.61335 24.0542Z" fill="white"/>
<path d="M43.1709 71.3819H0V62.4963H34.8815C38.4878 62.4963 41.4113 58.9997 41.4113 54.6864V53.9378C41.4113 49.6246 38.4878 46.1279 34.8815 46.1279H18.459C16.2779 46.1279 14.5098 44.0132 14.5098 41.4045C14.5098 38.7959 16.2779 36.6812 18.459 36.6812H43.1709C46.7772 36.6812 49.7007 40.1778 49.7007 44.491V63.572C49.7007 67.8852 46.7772 71.3819 43.1709 71.3819Z" fill="white"/>
</g>
<defs>
<clipPath id="clip0_801_74">
<rect width="496" height="92" fill="white"/>
</clipPath>
</defs>
</svg>
